<svg width="452" height="452" viewBox="0 0 452 452" fill="none" xmlns="http://www.w3.org/2000/svg">
<path d="M99.2657 38.9856C-17.7445 118.514 -33.5002 282.933 63.6784 383.306C56.2914 391.613 10.0283 443.635 2.59215 451.997H225.88L240.939 226.112L225.88 0.227844C180.417 0.22684 136.629 13.5912 99.2657 38.9856V38.9856Z" fill="#186773"/>
<path d="M225.88 0.226868V451.996C351.207 451.996 451.764 350.422 451.764 226.111C451.764 101.274 350.736 0.226868 225.88 0.226868V0.226868Z" fill="#2F4858"/>
<path d="M225.88 301.406C209.482 301.406 106.854 301.406 90.3488 301.406C90.3488 290.873 90.3488 281.822 90.3488 271.288H225.88L240.939 286.347L225.88 301.406Z" fill="#E6F2FF"/>
<path d="M225.88 241.17C209.482 241.17 106.854 241.17 90.3488 241.17C90.3488 230.637 90.3488 221.586 90.3488 211.052H225.88L240.939 226.111L225.88 241.17Z" fill="#E6F2FF"/>
<path d="M225.88 271.288H361.409V301.406H225.88V271.288Z" fill="#CCDDFF"/>
<path d="M225.88 211.052H361.409V241.17H225.88V211.052Z" fill="#CCDDFF"/>
<path d="M90.3488 150.817H225.88V180.935H90.3488V150.817Z" fill="#E6F2FF"/>
</svg>
